<mxfile host="app.diagrams.net" modified="2023-08-07T02:08:46.971Z" agent="Mozilla/5.0 (Windows NT 10.0; Win64; x64; rv:109.0) Gecko/20100101 Firefox/115.0" etag="uBEEr0CaDsaRcgWHU2mK" version="21.3.2" type="google">
  <diagram name="Page-1" id="0-Dh4XHfn2kFjg5MDQxY">
    <mxGraphModel grid="1" page="1" gridSize="10" guides="1" tooltips="1" connect="1" arrows="1" fold="1" pageScale="1" pageWidth="850" pageHeight="1100" math="0" shadow="0">
      <root>
        <mxCell id="0" />
        <mxCell id="1" parent="0" />
        <mxCell id="xJuPg4SLmBhcce86Zfza-1" value="" style="rounded=0;whiteSpace=wrap;html=1;imageWidth=1920;imageHeight=1080;" vertex="1" parent="1">
          <mxGeometry width="1920" height="1080" as="geometry" />
        </mxCell>
        <mxCell id="xJuPg4SLmBhcce86Zfza-2" value="&lt;h1&gt;&lt;font style=&quot;font-size: 100px;&quot;&gt;Realm Render&lt;/font&gt;&lt;/h1&gt;" style="text;html=1;strokeColor=none;fillColor=none;align=center;verticalAlign=middle;whiteSpace=wrap;rounded=0;fontFamily=Tahoma;" vertex="1" parent="1">
          <mxGeometry x="60" width="960" height="310" as="geometry" />
        </mxCell>
        <mxCell id="xJuPg4SLmBhcce86Zfza-17" value="" style="verticalLabelPosition=bottom;verticalAlign=top;html=1;shape=mxgraph.basic.orthogonal_triangle;direction=north;strokeColor=none;fillColor=#D5E3DE;" vertex="1" parent="1">
          <mxGeometry x="1160" y="160" width="760" height="920" as="geometry" />
        </mxCell>
        <mxCell id="xJuPg4SLmBhcce86Zfza-15" value="" style="verticalLabelPosition=bottom;verticalAlign=top;html=1;shape=mxgraph.basic.orthogonal_triangle;flipH=1;fillColor=#ECFFD9;strokeColor=none;" vertex="1" parent="1">
          <mxGeometry y="530" width="1920" height="390" as="geometry" />
        </mxCell>
        <mxCell id="xJuPg4SLmBhcce86Zfza-14" value="" style="verticalLabelPosition=bottom;verticalAlign=top;html=1;shape=mxgraph.basic.orthogonal_triangle;flipH=0;fillColor=#CDE3B6;strokeColor=none;" vertex="1" parent="1">
          <mxGeometry y="620" width="1910" height="460" as="geometry" />
        </mxCell>
        <mxCell id="xJuPg4SLmBhcce86Zfza-8" value="" style="group" vertex="1" connectable="0" parent="1">
          <mxGeometry x="205" y="360" width="280" height="340" as="geometry" />
        </mxCell>
        <mxCell id="xJuPg4SLmBhcce86Zfza-3" value="" style="rounded=1;whiteSpace=wrap;html=1;" vertex="1" parent="xJuPg4SLmBhcce86Zfza-8">
          <mxGeometry width="280" height="340" as="geometry" />
        </mxCell>
        <mxCell id="xJuPg4SLmBhcce86Zfza-5" value="New" style="rounded=1;whiteSpace=wrap;html=1;fontFamily=Tahoma;fontSize=45;verticalAlign=middle;align=center;labelPosition=center;verticalLabelPosition=middle;" vertex="1" parent="xJuPg4SLmBhcce86Zfza-8">
          <mxGeometry x="30" y="30" width="220" height="80" as="geometry" />
        </mxCell>
        <mxCell id="xJuPg4SLmBhcce86Zfza-6" value="Load" style="rounded=1;whiteSpace=wrap;html=1;fontFamily=Tahoma;fontSize=45;verticalAlign=middle;align=center;labelPosition=center;verticalLabelPosition=middle;" vertex="1" parent="xJuPg4SLmBhcce86Zfza-8">
          <mxGeometry x="30.000000000000114" y="130" width="220" height="80" as="geometry" />
        </mxCell>
        <mxCell id="xJuPg4SLmBhcce86Zfza-7" value="Join" style="rounded=1;whiteSpace=wrap;html=1;fontFamily=Tahoma;fontSize=45;verticalAlign=middle;align=center;labelPosition=center;verticalLabelPosition=middle;" vertex="1" parent="xJuPg4SLmBhcce86Zfza-8">
          <mxGeometry x="30.000000000000114" y="230" width="220" height="80" as="geometry" />
        </mxCell>
        <mxCell id="xJuPg4SLmBhcce86Zfza-13" value="" style="verticalLabelPosition=bottom;verticalAlign=top;html=1;shape=mxgraph.basic.orthogonal_triangle;flipH=1;fillColor=#CFED7E;strokeColor=none;" vertex="1" parent="1">
          <mxGeometry x="660" y="620" width="1260" height="460" as="geometry" />
        </mxCell>
        <mxCell id="xJuPg4SLmBhcce86Zfza-22" value="" style="group" vertex="1" connectable="0" parent="1">
          <mxGeometry x="1425" y="770" width="100" height="150" as="geometry" />
        </mxCell>
        <mxCell id="xJuPg4SLmBhcce86Zfza-18" value="" style="rounded=0;whiteSpace=wrap;html=1;strokeColor=none;fillColor=#C79E2C;" vertex="1" parent="xJuPg4SLmBhcce86Zfza-22">
          <mxGeometry x="25" y="90" width="50" height="60" as="geometry" />
        </mxCell>
        <mxCell id="xJuPg4SLmBhcce86Zfza-21" value="" style="group" vertex="1" connectable="0" parent="xJuPg4SLmBhcce86Zfza-22">
          <mxGeometry width="100" height="115" as="geometry" />
        </mxCell>
        <mxCell id="xJuPg4SLmBhcce86Zfza-19" value="" style="verticalLabelPosition=bottom;verticalAlign=top;html=1;shape=mxgraph.basic.acute_triangle;dx=0.5;fillColor=#71B012;strokeColor=none;" vertex="1" parent="xJuPg4SLmBhcce86Zfza-21">
          <mxGeometry y="45" width="100" height="70" as="geometry" />
        </mxCell>
        <mxCell id="xJuPg4SLmBhcce86Zfza-20" value="" style="verticalLabelPosition=bottom;verticalAlign=top;html=1;shape=mxgraph.basic.acute_triangle;dx=0.5;fillColor=#71B012;strokeColor=none;" vertex="1" parent="xJuPg4SLmBhcce86Zfza-21">
          <mxGeometry width="100" height="90" as="geometry" />
        </mxCell>
        <mxCell id="xJuPg4SLmBhcce86Zfza-23" value="" style="group" vertex="1" connectable="0" parent="1">
          <mxGeometry x="1200" y="820" width="100" height="150" as="geometry" />
        </mxCell>
        <mxCell id="xJuPg4SLmBhcce86Zfza-24" value="" style="rounded=0;whiteSpace=wrap;html=1;strokeColor=none;fillColor=#C79E2C;" vertex="1" parent="xJuPg4SLmBhcce86Zfza-23">
          <mxGeometry x="25" y="90" width="50" height="60" as="geometry" />
        </mxCell>
        <mxCell id="xJuPg4SLmBhcce86Zfza-25" value="" style="group" vertex="1" connectable="0" parent="xJuPg4SLmBhcce86Zfza-23">
          <mxGeometry width="100" height="115" as="geometry" />
        </mxCell>
        <mxCell id="xJuPg4SLmBhcce86Zfza-26" value="" style="verticalLabelPosition=bottom;verticalAlign=top;html=1;shape=mxgraph.basic.acute_triangle;dx=0.5;fillColor=#71B012;strokeColor=none;" vertex="1" parent="xJuPg4SLmBhcce86Zfza-25">
          <mxGeometry y="45" width="100" height="70" as="geometry" />
        </mxCell>
        <mxCell id="xJuPg4SLmBhcce86Zfza-27" value="" style="verticalLabelPosition=bottom;verticalAlign=top;html=1;shape=mxgraph.basic.acute_triangle;dx=0.5;fillColor=#71B012;strokeColor=none;" vertex="1" parent="xJuPg4SLmBhcce86Zfza-25">
          <mxGeometry width="100" height="90" as="geometry" />
        </mxCell>
        <mxCell id="xJuPg4SLmBhcce86Zfza-34" value="" style="group" vertex="1" connectable="0" parent="1">
          <mxGeometry x="1700" y="780" width="100" height="150" as="geometry" />
        </mxCell>
        <mxCell id="xJuPg4SLmBhcce86Zfza-35" value="" style="rounded=0;whiteSpace=wrap;html=1;strokeColor=none;fillColor=#C79E2C;" vertex="1" parent="xJuPg4SLmBhcce86Zfza-34">
          <mxGeometry x="25" y="90" width="50" height="60" as="geometry" />
        </mxCell>
        <mxCell id="xJuPg4SLmBhcce86Zfza-36" value="" style="group" vertex="1" connectable="0" parent="xJuPg4SLmBhcce86Zfza-34">
          <mxGeometry width="100" height="115" as="geometry" />
        </mxCell>
        <mxCell id="xJuPg4SLmBhcce86Zfza-37" value="" style="verticalLabelPosition=bottom;verticalAlign=top;html=1;shape=mxgraph.basic.acute_triangle;dx=0.5;fillColor=#71B012;strokeColor=none;" vertex="1" parent="xJuPg4SLmBhcce86Zfza-36">
          <mxGeometry y="45" width="100" height="70" as="geometry" />
        </mxCell>
        <mxCell id="xJuPg4SLmBhcce86Zfza-38" value="" style="verticalLabelPosition=bottom;verticalAlign=top;html=1;shape=mxgraph.basic.acute_triangle;dx=0.5;fillColor=#71B012;strokeColor=none;" vertex="1" parent="xJuPg4SLmBhcce86Zfza-36">
          <mxGeometry width="100" height="90" as="geometry" />
        </mxCell>
        <mxCell id="xJuPg4SLmBhcce86Zfza-39" value="" style="verticalLabelPosition=bottom;verticalAlign=top;html=1;shape=mxgraph.basic.sun;aspect=fixed;fillColor=#EDDF1C;strokeColor=none;" vertex="1" parent="1">
          <mxGeometry x="1285" y="35" width="240" height="240" as="geometry" />
        </mxCell>
      </root>
    </mxGraphModel>
  </diagram>
</mxfile>
